<?xml version="1.0" encoding="utf-8"?>
<?xml-stylesheet type="text/css" href="cht-ch1-v3_fig16.css"?>
<svg xmlns="http://www.w3.org/2000/svg" xmlns:xlink="http://www.w3.org/1999/xlink" version="1.1" width="940" height="640">
	<style type="text/css">
		.step1 {
			display: default;
		}
		.step2 {
			display: default;
		}
		.step3 {
			display: default;
		}
		.step4 {
			display: default;
		}
		.step5 {
			display: default;
		}
		.step6 {
			display: default;
		}
		.step7 {
			display: default;
		}
		.step8 {
			display: default;
		}
		svg_ {
			border: 1px solid black;
			background: #a2a2a2;
		}
		.curve {
			fill: none;
		}
		.enveloppe text {
			fill: white;
		}
		.isotherme {
			stroke-width: 2px;
		}
		.point {
			fill: red;
			stroke: white;
			stroke-width: 1.5px;
		}
		.axis {
			stroke: black;
			stroke-width: 2.5px;
			fill: none;
			marker-end: url(#arrow);
		}
		text {
			fill: black;
			font-family: Arial;
		}
		#isotherme700 {
			stroke: green;
		}
		#isotherme647 {
			stroke: saddlebrown;
		}
		#isotherme600 {
			stroke: blue;
		}
		#isotherme580 {
			stroke: indigo;
		}
		#isotherme560 {
			stroke: yellow;
		}
		#courbe-bulle {
			stroke: #4169e1;
			stroke-dasharray: 8 4;
			stroke-width: 3px;
		}
		#courbe-rose {
			stroke: red;
			stroke-width: 3px;
			stroke-dasharray: 8 4;
		}
		.phase-name {
			stroke-width: 2.5px;
			fill: white;
			font-size: 20px;
			
		}
		.repere {
			stroke: black;
			stroke-dasharray: 2 2;
			stroke-width: 1px;
		}
		.axis-graduation {
			stroke: black;
			stroke-width: 0.8px;
			fill: none;
		}
		.axis-name {
			fill: black;
			font-size: 20px;
		}
		.x-values text {
			fill: black;
			font-size: 16px;
			text-anchor: middle;
			dominant-baseline: hanging;
		}
		.y-values text {
			fill: black;
			font-size: 16px;
			text-anchor: end;
			dominant-baseline: middle;
		}
		.exposant {
			font-size: 14px;
		}
		.indice {
			font-size: 14px;
		}
		.hidden {
			display: none;
		}
	</style>
	<defs>
		<marker id="arrow" markerWidth="6" markerHeight="4" refX="1" refY="2" orient="auto">
			<path d="M 0 0 V4 L 6 2 Z" class="arrow"/>
		</marker>
		<marker id="point" markerWidth="2" markerHeight="4" refX="1" refY="1" orient="auto">
			<circle cx="1" cy="1" r="1" class="point"/>
		</marker>
		<g id="axes">
			<g>
				<path class="axis" d="M 0 0 H 820"/>
				<path class="axis-graduation" id="axis-graduation-x" d="M 0,0 v 10 M 75,0 v 5 M 150,0 v 10 M 225,0 v 5 M 300,0 v 10 M 375,0 v 5 M 450,0 v 10 M 525,0 v 5 M 600,0 v 10 M 675,0 v 5 M 750,0 v 10 M 825,0 v 5 M 900,0 v 10"/>
				<g class="x-values">
					<text x="150" y="15">0,1</text>
					<text x="300" y="15">0,2</text>
					<text x="450" y="15">0,3</text>
					<text x="600" y="15">0,4</text>
					<text x="750" y="15">0,5</text>
				</g>
				<text x="700" y="60" class="axis-name">V̅ (L·mol<tspan dx="2" dy="-7" class="exposant">−1</tspan><tspan class="axis-name" dx="2" dy="7">)</tspan></text>
			</g>
			<g>
				<path class="axis" d="M 0 0 V -540"/>
				<path class="axis-graduation" id="axis-graduation-x" d="M 0 0 h -10 M 0 -150 h -10 M 0 -300 h -10 M 0 -450 h -10"/>
				<g class="y-values">
					<text x="-15" y="-150">100</text>
					<text x="-15" y="-300">200</text>
					<text x="-15" y="-450">300</text>
				</g>
				<text x="-15" y="-525" text-anchor="end" class="axis-name">P (bar)</text>
			</g>
		</g>
		<g id="figure">
			<use xlink:href="#axes" x="0" y="0"/>
			<g>
				<path class="curve isotherme" id="isotherme700" d="M 107.0,-540.0 C 109.1,-534.1 109.9,-531.7 110.4,-530.5 C 110.8,-529.4 111.7,-527.0 112.1,-525.9 C 112.6,-524.7 113.5,-522.3 114.0,-521.2 C 114.5,-520.0 115.4,-517.7 115.9,-516.6 C 116.4,-515.4 117.4,-513.1 117.9,-511.9 C 118.4,-510.8 119.4,-508.5 119.9,-507.4 C 120.4,-506.2 121.5,-504.0 122.0,-502.8 C 122.6,-501.7 123.6,-499.4 124.2,-498.3 C 124.8,-497.2 125.9,-494.9 126.4,-493.8 C 127.0,-492.7 128.2,-490.5 128.8,-489.3 C 129.3,-488.2 130.5,-486.0 131.1,-484.9 C 131.7,-483.8 132.9,-481.6 133.6,-480.5 C 134.2,-479.4 135.4,-477.3 136.0,-476.2 C 136.7,-475.1 137.9,-472.9 138.6,-471.9 C 139.2,-470.8 140.5,-468.6 141.2,-467.6 C 141.8,-466.5 143.2,-464.4 143.8,-463.3 C 144.5,-462.2 145.9,-460.1 146.5,-459.1 C 147.2,-458.0 148.6,-455.9 149.3,-454.9 C 150.0,-453.9 151.4,-451.8 152.1,-450.7 C 152.8,-449.7 154.2,-447.6 154.9,-446.6 C 155.6,-445.6 157.1,-443.5 157.8,-442.5 C 158.5,-441.5 160.0,-439.5 160.7,-438.5 C 161.4,-437.4 162.9,-435.4 163.7,-434.4 C 164.4,-433.4 165.9,-431.4 166.7,-430.4 C 167.5,-429.4 169.0,-427.4 169.7,-426.4 C 170.5,-425.4 172.1,-423.5 172.8,-422.5 C 173.6,-421.5 175.2,-419.6 175.9,-418.6 C 176.7,-417.6 178.3,-415.7 179.1,-414.7 C 179.9,-413.7 181.5,-411.8 182.3,-410.8 C 183.1,-409.9 184.7,-408.0 185.5,-407.0 C 186.4,-406.1 188.0,-404.2 188.8,-403.2 C 189.6,-402.3 191.3,-400.4 192.1,-399.4 C 193.0,-398.5 194.6,-396.6 195.5,-395.7 C 196.3,-394.8 198.0,-392.9 198.8,-392.0 C 199.7,-391.1 201.4,-389.2 202.2,-388.3 C 203.1,-387.4 204.8,-385.6 205.7,-384.7 C 206.5,-383.8 208.3,-382.0 209.1,-381.1 C 210.0,-380.2 211.8,-378.4 212.7,-377.5 C 213.5,-376.6 215.3,-374.8 216.2,-373.9 C 217.1,-373.0 218.9,-371.3 219.8,-370.4 C 220.7,-369.5 222.5,-367.8 223.4,-366.9 C 224.3,-366.0 226.1,-364.3 227.0,-363.5 C 227.9,-362.6 229.7,-360.9 230.7,-360.0 C 231.6,-359.2 233.4,-357.5 234.3,-356.6 C 235.3,-355.8 237.1,-354.1 238.1,-353.3 C 239.0,-352.4 240.9,-350.8 241.8,-350.0 C 242.8,-349.1 244.6,-347.5 245.6,-346.7 C 246.5,-345.8 248.4,-344.2 249.4,-343.4 C 250.4,-342.6 252.3,-341.0 253.2,-340.2 C 254.2,-339.4 256.1,-337.8 257.1,-337.0 C 258.1,-336.2 260.0,-334.6 261.0,-333.8 C 262.0,-333.0 263.9,-331.5 264.9,-330.7 C 265.9,-329.9 267.9,-328.4 268.8,-327.6 C 269.8,-326.8 271.8,-325.3 272.8,-324.5 C 273.8,-323.8 275.8,-322.3 276.8,-321.5 C 277.8,-320.8 279.8,-319.3 280.8,-318.5 C 281.8,-317.8 283.9,-316.3 284.9,-315.6 C 285.9,-314.8 287.9,-313.4 288.9,-312.6 C 290.0,-311.9 292.0,-310.5 293.0,-309.7 C 294.1,-309.0 296.1,-307.6 297.1,-306.9 C 298.2,-306.2 300.3,-304.8 301.3,-304.1 C 302.3,-303.4 304.4,-302.0 305.4,-301.3 C 306.5,-300.6 308.6,-299.2 309.6,-298.5 C 310.7,-297.8 312.8,-296.5 313.8,-295.8 C 314.9,-295.1 317.0,-293.8 318.1,-293.1 C 319.1,-292.5 321.2,-291.1 322.3,-290.5 C 323.4,-289.8 325.5,-288.5 326.6,-287.8 C 327.7,-287.2 329.8,-285.9 330.9,-285.3 C 331.9,-284.6 334.1,-283.3 335.2,-282.7 C 336.3,-282.1 338.4,-280.8 339.5,-280.2 C 340.6,-279.5 342.8,-278.3 343.8,-277.7 C 344.9,-277.1 347.1,-275.8 348.2,-275.2 C 349.3,-274.6 351.5,-273.4 352.6,-272.8 C 353.7,-272.2 355.9,-271.0 357.0,-270.4 C 358.1,-269.8 360.3,-268.6 361.4,-268.0 C 362.5,-267.4 364.7,-266.3 365.8,-265.7 C 366.9,-265.1 369.1,-264.0 370.3,-263.4 C 371.4,-262.8 373.6,-261.7 374.7,-261.1 C 375.8,-260.6 378.1,-259.4 379.2,-258.9 C 380.3,-258.3 382.5,-257.2 383.7,-256.7 C 384.8,-256.1 387.0,-255.0 388.2,-254.5 C 389.3,-253.9 391.6,-252.9 392.7,-252.3 C 393.8,-251.8 396.1,-250.7 397.2,-250.2 C 398.3,-249.7 400.6,-248.6 401.8,-248.1 C 402.9,-247.6 405.2,-246.6 406.3,-246.0 C 407.5,-245.5 409.7,-244.5 410.9,-244.0 C 412.0,-243.5 414.3,-242.5 415.5,-242.0 C 416.6,-241.5 418.9,-240.5 420.1,-240.0 C 421.2,-239.5 423.5,-238.5 424.7,-238.0 C 425.8,-237.5 428.1,-236.6 429.3,-236.1 C 430.5,-235.6 432.8,-234.7 433.9,-234.2 C 435.1,-233.7 437.4,-232.8 438.6,-232.3 C 439.7,-231.8 442.1,-230.9 443.2,-230.4 C 444.4,-230.0 446.7,-229.1 447.9,-228.6 C 449.1,-228.1 451.4,-227.2 452.5,-226.8 C 453.7,-226.3 456.1,-225.4 457.2,-225.0 C 458.4,-224.6 460.8,-223.7 461.9,-223.2 C 463.1,-222.8 465.4,-221.9 466.6,-221.5 C 467.8,-221.1 470.2,-220.2 471.3,-219.8 C 472.5,-219.4 474.9,-218.5 476.0,-218.1 C 477.2,-217.7 479.6,-216.8 480.8,-216.4 C 481.9,-216.0 484.3,-215.2 485.5,-214.8 C 486.7,-214.4 489.0,-213.5 490.2,-213.1 C 491.4,-212.7 493.8,-211.9 495.0,-211.5 C 496.2,-211.1 498.5,-210.3 499.7,-210.0 C 500.9,-209.6 503.3,-208.8 504.5,-208.4 C 505.7,-208.0 508.1,-207.2 509.2,-206.8 C 510.4,-206.5 512.8,-205.7 514.0,-205.3 C 515.2,-204.9 517.6,-204.2 518.8,-203.8 C 520.0,-203.5 522.4,-202.7 523.6,-202.3 C 524.8,-202.0 527.2,-201.2 528.4,-200.9 C 529.6,-200.5 532.0,-199.8 533.2,-199.4 C 534.4,-199.1 536.8,-198.4 538.0,-198.0 C 539.2,-197.7 541.6,-197.0 542.8,-196.6 C 544.0,-196.3 546.4,-195.6 547.6,-195.2 C 548.8,-194.9 551.2,-194.2 552.4,-193.8 C 553.6,-193.5 556.0,-192.8 557.2,-192.5 C 558.4,-192.1 560.8,-191.5 562.0,-191.1 C 563.2,-190.8 565.7,-190.2 566.9,-189.8 C 568.1,-189.5 570.5,-188.8 571.7,-188.5 C 572.9,-188.2 575.3,-187.6 576.5,-187.2 C 577.8,-186.9 580.2,-186.3 581.4,-186.0 C 582.6,-185.6 585.0,-185.0 586.2,-184.7 C 587.4,-184.4 589.9,-183.8 591.1,-183.5 C 592.3,-183.2 594.7,-182.5 595.9,-182.2 C 597.1,-181.9 599.6,-181.3 600.8,-181.0 C 602.0,-180.7 604.4,-180.1 605.7,-179.8 C 606.9,-179.5 609.3,-179.0 610.5,-178.7 C 611.7,-178.4 614.2,-177.8 615.4,-177.5 C 616.6,-177.2 619.0,-176.6 620.3,-176.3 C 621.5,-176.1 623.9,-175.5 625.1,-175.2 C 626.4,-174.9 628.8,-174.4 630.0,-174.1 C 631.2,-173.8 633.7,-173.2 634.9,-173.0 C 636.1,-172.7 638.6,-172.1 639.8,-171.9 C 641.0,-171.6 643.5,-171.1 644.7,-170.8 C 645.9,-170.5 648.4,-170.0 649.6,-169.7 C 650.8,-169.4 653.2,-168.9 654.5,-168.7 C 655.7,-168.4 658.1,-167.9 659.4,-167.6 C 660.6,-167.4 663.0,-166.8 664.3,-166.6 C 665.5,-166.3 667.9,-165.8 669.2,-165.6 C 670.4,-165.3 672.8,-164.8 674.1,-164.5 C 675.3,-164.3 677.7,-163.8 679.0,-163.5 C 680.2,-163.3 682.7,-162.8 683.9,-162.6 C 685.1,-162.3 687.6,-161.8 688.8,-161.6 C 690.0,-161.3 692.5,-160.9 693.7,-160.6 C 694.9,-160.4 697.4,-159.9 698.6,-159.7 C 699.9,-159.4 702.3,-159.0 703.5,-158.7 C 704.8,-158.5 707.2,-158.0 708.5,-157.8 C 709.7,-157.6 712.2,-157.1 713.4,-156.9 C 714.6,-156.6 717.1,-156.2 718.3,-156.0 C 719.5,-155.7 722.0,-155.3 723.2,-155.1 C 724.5,-154.8 726.9,-154.4 728.2,-154.2 C 729.4,-153.9 731.9,-153.5 733.1,-153.3 C 734.3,-153.1 736.8,-152.6 738.0,-152.4 C 739.3,-152.2 741.7,-151.8 743.0,-151.5 C 744.2,-151.3 746.7,-150.9 747.9,-150.7 C 749.1,-150.5 751.6,-150.1 752.8,-149.8 C 754.1,-149.6 756.5,-149.2 757.8,-149.0 C 759.0,-148.8 761.5,-148.4 762.7,-148.2 C 763.9,-148.0 766.4,-147.6 767.6,-147.4 C 768.9,-147.2 771.3,-146.8 772.6,-146.6 C 773.8,-146.4 776.3,-146.0 777.5,-145.8 C 778.8,-145.6 781.2,-145.2 782.5,-145.0 C 783.7,-144.8 786.2,-144.4 787.4,-144.2 C 788.7,-144.0 791.1,-143.6 792.4,-143.4 C 793.6,-143.2 796.1,-142.8 797.3,-142.6 C 798.0,-142.5 799.3,-142.3 800.0,-142.2"/>
				<text  class="step2" text-anchor="middle" x="260" y="-8"><textPath href="#isotherme700">700 K &gt; T<tspan dx="1" dy="5" class="indice">c</tspan></textPath></text>
			</g>
			<g>
				<path class="curve isotherme" id="isotherme647" d="M 61.1,-539.8 C 61.4,-533.4 61.5,-530.7 61.6,-529.4 C 61.6,-528.1 61.7,-525.5 61.8,-524.2 C 61.8,-522.9 62.0,-520.4 62.0,-519.1 C 62.1,-517.8 62.2,-515.2 62.3,-513.9 C 62.3,-512.6 62.4,-510.1 62.5,-508.8 C 62.6,-507.5 62.7,-504.8 62.7,-503.5 C 62.8,-502.3 62.9,-499.7 63.0,-498.4 C 63.1,-497.1 63.2,-494.5 63.3,-493.2 C 63.3,-491.9 63.5,-489.4 63.5,-488.1 C 63.6,-486.8 63.8,-484.2 63.8,-482.9 C 63.9,-481.6 64.0,-479.1 64.1,-477.9 C 64.2,-476.6 64.3,-474.0 64.4,-472.8 C 64.5,-471.5 64.6,-468.9 64.7,-467.6 C 64.8,-466.3 65.0,-463.8 65.0,-462.6 C 65.1,-461.3 65.3,-458.8 65.4,-457.6 C 65.5,-456.3 65.6,-453.8 65.7,-452.5 C 65.8,-451.2 66.0,-448.7 66.1,-447.4 C 66.2,-446.2 66.4,-443.6 66.5,-442.4 C 66.5,-441.1 66.7,-438.6 66.8,-437.3 C 66.9,-436.1 67.1,-433.6 67.2,-432.3 C 67.4,-431.0 67.6,-428.5 67.7,-427.2 C 67.8,-425.9 68.0,-423.4 68.1,-422.1 C 68.2,-420.9 68.5,-418.3 68.6,-417.0 C 68.7,-415.8 69.0,-413.2 69.1,-411.9 C 69.3,-410.7 69.5,-408.1 69.7,-406.8 C 69.8,-405.6 70.1,-403.0 70.2,-401.8 C 70.4,-400.5 70.7,-398.0 70.8,-396.8 C 71.0,-395.5 71.3,-393.0 71.5,-391.8 C 71.6,-390.5 72.0,-388.0 72.2,-386.7 C 72.4,-385.5 72.7,-383.0 72.9,-381.8 C 73.1,-380.5 73.5,-378.0 73.8,-376.8 C 74.0,-375.6 74.4,-373.1 74.7,-371.9 C 74.9,-370.6 75.4,-368.2 75.7,-366.9 C 75.9,-365.7 76.5,-363.3 76.8,-362.1 C 77.1,-360.8 77.7,-358.4 78.1,-357.2 C 78.4,-356.0 79.2,-353.6 79.6,-352.4 C 80.0,-351.2 80.8,-348.9 81.3,-347.7 C 81.8,-346.5 82.9,-344.3 83.5,-343.2 C 84.1,-342.1 85.4,-339.9 86.2,-338.9 C 86.9,-337.9 88.7,-336.1 89.6,-335.3 C 90.6,-334.5 92.8,-333.2 93.9,-332.7 C 95.1,-332.2 97.5,-331.5 98.7,-331.3 C 99.9,-331.0 102.4,-330.8 103.7,-330.7 C 104.9,-330.7 107.5,-330.7 108.7,-330.7 C 110.0,-330.7 112.5,-330.7 113.7,-330.7 C 115.0,-330.7 117.5,-330.7 118.7,-330.7 C 120.0,-330.7 122.5,-330.7 123.7,-330.6 C 125.0,-330.5 127.5,-330.4 128.7,-330.3 C 130.0,-330.1 132.5,-329.9 133.7,-329.7 C 134.9,-329.5 137.4,-329.1 138.6,-328.9 C 139.9,-328.6 142.3,-328.1 143.5,-327.9 C 144.8,-327.6 147.2,-327.0 148.4,-326.6 C 149.6,-326.3 152.0,-325.6 153.2,-325.2 C 154.4,-324.9 156.8,-324.1 158.0,-323.7 C 159.2,-323.3 161.5,-322.5 162.7,-322.0 C 163.9,-321.6 166.2,-320.7 167.4,-320.2 C 168.6,-319.8 170.9,-318.8 172.0,-318.4 C 173.2,-317.9 175.5,-316.9 176.6,-316.4 C 177.8,-315.9 180.1,-314.9 181.2,-314.4 C 182.4,-313.9 184.6,-312.8 185.8,-312.3 C 186.9,-311.8 189.2,-310.7 190.3,-310.2 C 191.4,-309.6 193.7,-308.5 194.8,-308.0 C 195.9,-307.4 198.2,-306.3 199.3,-305.8 C 200.4,-305.2 202.7,-304.1 203.8,-303.5 C 204.9,-303.0 207.1,-301.8 208.3,-301.3 C 209.4,-300.7 211.6,-299.6 212.7,-299.0 C 213.8,-298.4 216.1,-297.3 217.2,-296.7 C 218.3,-296.1 220.5,-295.0 221.6,-294.4 C 222.8,-293.8 225.0,-292.7 226.1,-292.1 C 227.2,-291.5 229.4,-290.4 230.5,-289.8 C 231.7,-289.2 233.9,-288.1 235.0,-287.5 C 236.1,-286.9 238.3,-285.8 239.5,-285.2 C 240.6,-284.6 242.8,-283.5 243.9,-282.9 C 245.0,-282.3 247.3,-281.2 248.4,-280.6 C 249.5,-280.1 251.7,-278.9 252.8,-278.4 C 253.9,-277.8 256.2,-276.7 257.3,-276.1 C 258.4,-275.5 260.6,-274.4 261.8,-273.8 C 262.9,-273.3 265.1,-272.2 266.2,-271.6 C 267.4,-271.0 269.6,-269.9 270.7,-269.4 C 271.9,-268.8 274.1,-267.7 275.2,-267.2 C 276.4,-266.6 278.6,-265.5 279.7,-265.0 C 280.9,-264.4 283.1,-263.3 284.2,-262.8 C 285.4,-262.2 287.6,-261.2 288.8,-260.6 C 289.9,-260.1 292.2,-259.0 293.3,-258.5 C 294.4,-257.9 296.7,-256.9 297.8,-256.3 C 299.0,-255.8 301.2,-254.8 302.4,-254.2 C 303.5,-253.7 305.8,-252.7 306.9,-252.2 C 308.1,-251.6 310.3,-250.6 311.5,-250.1 C 312.6,-249.6 314.9,-248.5 316.0,-248.0 C 317.2,-247.5 319.5,-246.5 320.6,-246.0 C 321.8,-245.5 324.1,-244.5 325.2,-244.0 C 326.4,-243.5 328.7,-242.5 329.8,-242.0 C 331.0,-241.5 333.3,-240.5 334.4,-240.0 C 335.6,-239.5 337.9,-238.6 339.0,-238.1 C 340.2,-237.6 342.5,-236.6 343.6,-236.2 C 344.8,-235.7 347.1,-234.7 348.3,-234.3 C 349.4,-233.8 351.8,-232.8 352.9,-232.4 C 354.1,-231.9 356.4,-231.0 357.6,-230.5 C 358.7,-230.0 361.1,-229.1 362.2,-228.7 C 363.4,-228.2 365.7,-227.3 366.9,-226.8 C 368.1,-226.4 370.4,-225.5 371.6,-225.0 C 372.7,-224.6 375.1,-223.7 376.2,-223.3 C 377.4,-222.8 379.8,-221.9 380.9,-221.5 C 382.1,-221.1 384.5,-220.2 385.6,-219.8 C 386.8,-219.3 389.2,-218.5 390.3,-218.0 C 391.5,-217.6 393.9,-216.8 395.1,-216.3 C 396.2,-215.9 398.6,-215.1 399.8,-214.7 C 401.0,-214.2 403.3,-213.4 404.5,-213.0 C 405.7,-212.6 408.0,-211.8 409.2,-211.4 C 410.4,-211.0 412.8,-210.2 414.0,-209.7 C 415.2,-209.3 417.5,-208.5 418.7,-208.2 C 419.9,-207.8 422.3,-207.0 423.5,-206.6 C 424.7,-206.2 427.0,-205.4 428.2,-205.0 C 429.4,-204.6 431.8,-203.9 433.0,-203.5 C 434.2,-203.1 436.6,-202.3 437.8,-201.9 C 439.0,-201.6 441.3,-200.8 442.5,-200.4 C 443.7,-200.1 446.1,-199.3 447.3,-199.0 C 448.5,-198.6 450.9,-197.9 452.1,-197.5 C 453.3,-197.1 455.7,-196.4 456.9,-196.0 C 458.1,-195.7 460.5,-195.0 461.7,-194.6 C 462.9,-194.2 465.3,-193.5 466.5,-193.2 C 467.7,-192.8 470.1,-192.1 471.3,-191.8 C 472.5,-191.4 474.9,-190.8 476.1,-190.4 C 477.3,-190.1 479.7,-189.4 480.9,-189.0 C 482.2,-188.7 484.6,-188.0 485.8,-187.7 C 487.0,-187.4 489.4,-186.7 490.6,-186.4 C 491.8,-186.0 494.2,-185.4 495.4,-185.1 C 496.6,-184.7 499.1,-184.1 500.3,-183.8 C 501.5,-183.4 503.9,-182.8 505.1,-182.5 C 506.3,-182.2 508.7,-181.5 510.0,-181.2 C 511.2,-180.9 513.6,-180.3 514.8,-180.0 C 516.0,-179.6 518.4,-179.0 519.7,-178.7 C 520.9,-178.4 523.3,-177.8 524.5,-177.5 C 525.7,-177.2 528.2,-176.6 529.4,-176.3 C 530.6,-176.0 533.0,-175.4 534.2,-175.1 C 535.5,-174.8 537.9,-174.2 539.1,-173.9 C 540.3,-173.6 542.8,-173.0 544.0,-172.7 C 545.2,-172.5 547.6,-171.9 548.8,-171.6 C 550.1,-171.3 552.5,-170.7 553.7,-170.5 C 554.9,-170.2 557.4,-169.6 558.6,-169.3 C 559.8,-169.1 562.3,-168.5 563.5,-168.2 C 564.7,-168.0 567.2,-167.4 568.4,-167.1 C 569.6,-166.9 572.0,-166.3 573.3,-166.0 C 574.5,-165.8 576.9,-165.2 578.2,-165.0 C 579.4,-164.7 581.8,-164.2 583.0,-163.9 C 584.3,-163.7 586.7,-163.1 587.9,-162.9 C 589.2,-162.6 591.6,-162.1 592.8,-161.8 C 594.1,-161.6 596.5,-161.1 597.7,-160.8 C 599.0,-160.6 601.4,-160.1 602.7,-159.8 C 603.9,-159.5 606.3,-159.0 607.6,-158.8 C 608.8,-158.6 611.2,-158.1 612.5,-157.8 C 613.7,-157.6 616.1,-157.1 617.4,-156.8 C 618.6,-156.6 621.1,-156.1 622.3,-155.9 C 623.5,-155.6 626.0,-155.2 627.2,-154.9 C 628.4,-154.7 630.9,-154.2 632.1,-154.0 C 633.4,-153.7 635.8,-153.3 637.0,-153.0 C 638.3,-152.8 640.7,-152.3 642.0,-152.1 C 643.2,-151.9 645.7,-151.4 646.9,-151.2 C 648.1,-151.0 650.6,-150.5 651.8,-150.3 C 653.0,-150.1 655.5,-149.6 656.7,-149.4 C 658.0,-149.2 660.4,-148.8 661.7,-148.5 C 662.9,-148.3 665.4,-147.9 666.6,-147.7 C 667.8,-147.4 670.3,-147.0 671.5,-146.8 C 672.8,-146.6 675.3,-146.2 676.5,-145.9 C 677.7,-145.7 680.2,-145.3 681.4,-145.1 C 682.7,-144.9 685.1,-144.5 686.4,-144.3 C 687.6,-144.1 690.1,-143.6 691.3,-143.4 C 692.5,-143.2 695.0,-142.8 696.2,-142.6 C 697.5,-142.4 699.9,-142.0 701.2,-141.8 C 702.4,-141.6 704.9,-141.2 706.1,-141.0 C 707.3,-140.8 709.8,-140.4 711.1,-140.2 C 712.3,-140.0 714.8,-139.6 716.0,-139.4 C 717.2,-139.2 719.7,-138.9 721.0,-138.7 C 722.2,-138.5 724.7,-138.1 725.9,-137.9 C 727.1,-137.7 729.6,-137.3 730.9,-137.1 C 732.1,-136.9 734.6,-136.6 735.8,-136.4 C 737.0,-136.2 739.5,-135.8 740.8,-135.6 C 742.0,-135.5 744.5,-135.1 745.7,-134.9 C 746.9,-134.7 749.4,-134.4 750.7,-134.2 C 751.9,-134.0 754.4,-133.6 755.6,-133.5 C 756.8,-133.3 759.3,-132.9 760.6,-132.8 C 761.8,-132.6 764.3,-132.2 765.5,-132.0 C 766.8,-131.9 769.2,-131.5 770.5,-131.3 C 771.7,-131.2 774.2,-130.8 775.5,-130.7 C 776.7,-130.5 779.2,-130.1 780.4,-130.0 C 781.7,-129.8 784.1,-129.5 785.4,-129.3 C 786.6,-129.1 789.1,-128.8 790.3,-128.6 C 791.6,-128.5 794.1,-128.1 795.3,-128.0 C 796.5,-127.8 798.8,-127.5 800.0,-127.3"/>
				<text  class="step3" text-anchor="middle" x="330" y="-8"><textPath href="#isotherme647">647.3 K = T<tspan dx="1" dy="5" class="indice">c</tspan></textPath></text>
			</g>
			<g class="hidden">
				<path class="curve isotherme" id="isotherme600" d="M 48.9,-539.1 C 48.9,-532.2 49.0,-529.5 49.0,-528.1 C 49.0,-526.7 49.0,-524.0 49.0,-522.7 C 49.0,-521.3 49.1,-518.7 49.1,-517.3 C 49.1,-516.0 49.1,-513.3 49.2,-512.0 C 49.2,-510.7 49.2,-508.1 49.2,-506.8 C 49.2,-505.5 49.3,-502.9 49.3,-501.6 C 49.3,-500.3 49.3,-497.7 49.3,-496.4 C 49.3,-495.2 49.4,-492.6 49.4,-491.3 C 49.4,-490.1 49.4,-487.6 49.5,-486.3 C 49.5,-484.7 49.5,-481.6 49.5,-480.1 C 49.5,-478.5 49.6,-475.5 49.6,-473.9 C 49.6,-472.4 49.7,-469.4 49.7,-467.9 C 49.7,-466.4 49.7,-463.4 49.8,-461.9 C 49.8,-460.4 49.8,-457.4 49.8,-456.0 C 49.8,-454.5 49.9,-451.6 49.9,-450.1 C 49.9,-448.7 50.0,-445.8 50.0,-444.4 C 50.0,-442.9 50.0,-440.1 50.1,-438.7 C 50.1,-437.3 50.1,-434.5 50.1,-433.1 C 50.1,-431.7 50.2,-428.9 50.2,-427.5 C 50.2,-426.1 50.3,-423.4 50.3,-422.0 C 50.3,-420.7 50.3,-418.0 50.4,-416.6 C 50.4,-415.3 50.4,-412.6 50.4,-411.3 C 50.4,-410.0 50.5,-407.3 50.5,-406.0 C 50.5,-404.7 50.6,-402.1 50.6,-400.8 C 50.6,-399.5 50.6,-397.0 50.7,-395.7 C 50.7,-394.4 50.7,-391.9 50.7,-390.6 C 50.7,-389.4 50.8,-386.9 50.8,-385.6 C 50.8,-384.1 50.9,-381.2 50.9,-379.7 C 50.9,-378.2 51.0,-375.3 51.0,-373.8 C 51.0,-372.4 51.1,-369.5 51.1,-368.1 C 51.1,-366.7 51.1,-363.9 51.2,-362.4 C 51.2,-361.0 51.2,-358.3 51.3,-356.9 C 51.3,-355.5 51.3,-352.7 51.3,-351.4 C 51.4,-350.0 51.4,-347.3 51.4,-346.0 C 51.5,-344.6 51.5,-342.0 51.5,-340.6 C 51.5,-339.3 51.6,-336.7 51.6,-335.4 C 51.6,-334.1 51.7,-331.5 51.7,-330.2 C 51.7,-328.9 51.8,-326.4 51.8,-325.1 C 51.8,-323.9 51.9,-321.4 51.9,-320.1 C 51.9,-318.7 52.0,-315.8 52.0,-314.4 C 52.0,-313.0 52.1,-310.1 52.1,-308.7 C 52.1,-307.3 52.2,-304.5 52.2,-303.2 C 52.2,-301.8 52.3,-299.1 52.3,-297.7 C 52.3,-296.4 52.4,-293.7 52.4,-292.3 C 52.4,-291.0 52.5,-288.4 52.5,-287.1 C 52.5,-285.8 52.6,-283.2 52.6,-281.9 C 52.6,-280.6 52.7,-278.1 52.7,-276.8 C 52.8,-275.4 52.8,-272.5 52.8,-271.1 C 52.9,-269.7 52.9,-266.9 53.0,-265.5 C 53.0,-264.2 53.1,-261.4 53.1,-260.1 C 53.1,-258.7 53.2,-256.0 53.2,-254.7 C 53.2,-253.4 53.3,-250.7 53.3,-249.4 C 53.4,-248.1 53.4,-245.6 53.4,-244.3 C 53.5,-243.0 53.5,-240.5 53.6,-239.2 C 53.6,-237.8 53.7,-235.1 53.7,-233.7 C 53.7,-232.3 53.8,-229.6 53.8,-228.2 C 53.9,-226.9 53.9,-224.3 54.0,-222.9 C 54.0,-221.6 54.1,-219.0 54.1,-217.7 C 54.1,-216.5 54.2,-213.9 54.2,-212.7 C 54.3,-211.3 54.4,-208.5 54.4,-207.2 C 54.4,-205.8 54.5,-203.1 54.5,-201.8 C 54.6,-200.5 54.7,-197.9 54.7,-196.6 C 54.7,-195.3 54.8,-192.7 54.8,-191.5 C 54.9,-190.2 57.0,-187.8 58.3,-187.8 C 59.5,-187.8 62.0,-187.8 63.3,-187.8 C 64.5,-187.8 67.0,-187.8 68.3,-187.8 C 69.5,-187.8 72.1,-187.8 73.3,-187.8 C 74.6,-187.8 77.1,-187.8 78.3,-187.8 C 79.6,-187.8 82.1,-187.8 83.3,-187.8 C 84.6,-187.8 87.1,-187.8 88.3,-187.8 C 89.6,-187.8 92.1,-187.8 93.3,-187.8 C 94.6,-187.8 97.1,-187.8 98.4,-187.8 C 99.6,-187.8 102.1,-187.8 103.4,-187.8 C 104.6,-187.8 107.1,-187.8 108.4,-187.8 C 109.6,-187.8 112.1,-187.8 113.4,-187.8 C 114.6,-187.8 117.1,-187.8 118.4,-187.8 C 119.6,-187.8 122.2,-187.8 123.4,-187.8 C 124.7,-187.8 127.2,-187.8 128.4,-187.8 C 129.7,-187.8 132.2,-187.8 133.4,-187.8 C 134.7,-187.8 137.2,-187.8 138.4,-187.8 C 139.7,-187.8 142.2,-187.8 143.4,-187.8 C 144.7,-187.8 147.2,-187.8 148.5,-187.8 C 149.7,-187.8 152.2,-187.8 153.5,-187.8 C 154.7,-187.8 157.2,-187.8 158.5,-187.8 C 159.7,-187.8 162.2,-187.8 163.5,-187.8 C 164.7,-187.8 167.2,-187.8 168.5,-187.8 C 169.7,-187.8 172.3,-187.8 173.5,-187.8 C 174.8,-187.8 177.3,-187.8 178.5,-187.8 C 179.8,-187.8 182.3,-187.8 183.5,-187.8 C 184.8,-187.8 187.3,-187.8 188.5,-187.8 C 189.8,-187.8 192.3,-187.8 193.5,-187.8 C 194.8,-187.8 197.3,-187.8 198.6,-187.8 C 199.8,-187.8 202.3,-187.8 203.6,-187.8 C 204.8,-187.8 207.3,-187.8 208.6,-187.8 C 209.8,-187.8 212.3,-187.8 213.6,-187.8 C 214.8,-187.8 217.3,-187.8 218.6,-187.8 C 219.8,-187.8 222.4,-187.8 223.6,-187.8 C 224.9,-187.8 227.4,-187.8 228.6,-187.8 C 229.9,-187.8 232.4,-187.8 233.6,-187.8 C 234.9,-187.8 237.4,-187.8 238.6,-187.8 C 239.9,-187.8 242.4,-187.8 243.6,-187.8 C 244.9,-187.8 247.4,-187.8 248.7,-187.8 C 249.9,-187.8 252.4,-187.8 253.7,-187.8 C 254.9,-187.8 257.4,-187.8 258.7,-187.8 C 259.9,-187.8 262.4,-187.8 263.7,-187.8 C 264.9,-187.8 267.4,-187.8 268.7,-187.8 C 269.9,-187.8 272.5,-187.8 273.7,-187.8 C 275.0,-187.8 277.5,-187.8 278.7,-187.8 C 280.0,-187.8 282.5,-187.8 283.7,-187.8 C 285.0,-187.8 287.5,-187.8 288.7,-187.8 C 290.0,-187.8 292.5,-187.8 293.7,-187.8 C 295.0,-187.8 297.5,-187.8 298.8,-187.8 C 300.0,-187.8 302.5,-187.8 303.8,-187.8 C 305.0,-187.8 307.5,-187.8 308.8,-187.8 C 310.0,-187.8 312.5,-187.8 313.8,-187.8 C 315.0,-187.8 317.5,-187.8 318.8,-187.8 C 320.0,-187.8 322.6,-187.8 323.8,-187.8 C 325.1,-187.8 327.6,-187.8 328.8,-187.8 C 330.1,-187.8 332.6,-187.8 333.8,-187.8 C 335.1,-187.8 337.6,-187.8 338.8,-187.8 C 340.1,-187.8 342.6,-187.8 343.8,-187.8 C 345.1,-187.8 347.6,-187.8 348.9,-187.8 C 350.1,-187.8 352.6,-187.8 353.9,-187.8 C 355.1,-187.8 357.6,-187.8 358.9,-187.8 C 360.1,-187.8 362.6,-187.8 363.9,-187.8 C 365.1,-187.8 367.6,-187.8 368.9,-187.8 C 370.1,-187.8 372.7,-187.8 373.9,-187.8 C 375.2,-187.8 377.7,-187.8 378.9,-187.8 C 380.2,-187.8 382.7,-188.1 383.9,-187.8 C 385.1,-187.5 387.6,-186.8 388.8,-186.5 C 390.0,-186.2 392.4,-185.6 393.6,-185.3 C 394.8,-185.0 397.2,-184.3 398.5,-184.0 C 399.7,-183.7 402.1,-183.1 403.3,-182.8 C 404.5,-182.5 407.0,-181.9 408.2,-181.6 C 409.4,-181.3 411.8,-180.6 413.0,-180.3 C 414.3,-180.0 416.7,-179.4 417.9,-179.1 C 419.1,-178.8 421.5,-178.2 422.8,-177.9 C 424.0,-177.6 426.4,-177.0 427.6,-176.8 C 428.8,-176.5 431.3,-175.9 432.5,-175.6 C 433.7,-175.3 436.2,-174.7 437.4,-174.4 C 438.6,-174.1 441.0,-173.5 442.2,-173.3 C 443.5,-173.0 445.9,-172.4 447.1,-172.1 C 448.3,-171.8 450.8,-171.3 452.0,-171.0 C 453.2,-170.7 455.7,-170.1 456.9,-169.8 C 458.1,-169.6 460.5,-169.0 461.7,-168.7 C 463.0,-168.5 465.4,-167.9 466.6,-167.6 C 467.9,-167.4 470.3,-166.8 471.5,-166.5 C 472.7,-166.3 475.2,-165.7 476.4,-165.5 C 477.6,-165.2 480.1,-164.7 481.3,-164.4 C 482.5,-164.1 485.0,-163.6 486.2,-163.3 C 487.4,-163.1 489.9,-162.5 491.1,-162.3 C 492.3,-162.0 494.8,-161.5 496.0,-161.2 C 497.2,-161.0 499.7,-160.5 500.9,-160.2 C 502.1,-160.0 504.6,-159.4 505.8,-159.2 C 507.0,-158.9 509.5,-158.4 510.7,-158.2 C 511.9,-157.9 514.4,-157.4 515.6,-157.2 C 516.8,-156.9 519.3,-156.4 520.5,-156.2 C 521.7,-156.0 524.2,-155.5 525.4,-155.2 C 526.6,-155.0 529.1,-154.5 530.3,-154.3 C 531.6,-154.0 534.0,-153.5 535.3,-153.3 C 536.5,-153.1 538.9,-152.6 540.2,-152.3 C 541.4,-152.1 543.9,-151.6 545.1,-151.4 C 546.3,-151.2 548.8,-150.7 550.0,-150.5 C 551.2,-150.3 553.7,-149.8 554.9,-149.6 C 556.2,-149.3 558.6,-148.9 559.9,-148.7 C 561.1,-148.4 563.5,-148.0 564.8,-147.8 C 566.0,-147.5 568.5,-147.1 569.7,-146.9 C 570.9,-146.6 573.4,-146.2 574.6,-146.0 C 575.9,-145.8 578.4,-145.3 579.6,-145.1 C 580.8,-144.9 583.3,-144.5 584.5,-144.2 C 585.8,-144.0 588.2,-143.6 589.5,-143.4 C 590.7,-143.2 593.2,-142.8 594.4,-142.5 C 595.6,-142.3 598.1,-141.9 599.3,-141.7 C 600.6,-141.5 603.0,-141.1 604.3,-140.9 C 605.5,-140.7 608.0,-140.3 609.2,-140.1 C 610.4,-139.9 612.9,-139.4 614.1,-139.2 C 615.4,-139.0 617.8,-138.6 619.1,-138.4 C 620.3,-138.2 622.8,-137.8 624.0,-137.6 C 625.3,-137.4 627.7,-137.1 629.0,-136.9 C 630.2,-136.7 632.7,-136.3 633.9,-136.1 C 635.2,-135.9 637.6,-135.5 638.9,-135.3 C 640.1,-135.1 642.6,-134.7 643.8,-134.5 C 645.1,-134.3 647.5,-134.0 648.8,-133.8 C 650.0,-133.6 652.5,-133.2 653.7,-133.0 C 655.0,-132.8 657.4,-132.5 658.7,-132.3 C 659.9,-132.1 662.4,-131.7 663.6,-131.6 C 664.9,-131.4 667.3,-131.0 668.6,-130.8 C 669.8,-130.7 672.3,-130.3 673.5,-130.1 C 674.8,-129.9 677.2,-129.6 678.5,-129.4 C 679.7,-129.2 682.2,-128.9 683.4,-128.7 C 684.7,-128.5 687.2,-128.2 688.4,-128.0 C 689.7,-127.8 692.1,-127.5 693.4,-127.3 C 694.6,-127.1 697.1,-126.8 698.3,-126.6 C 699.6,-126.5 702.1,-126.1 703.3,-126.0 C 704.5,-125.8 707.0,-125.4 708.3,-125.3 C 709.5,-125.1 712.0,-124.8 713.2,-124.6 C 714.5,-124.5 717.0,-124.1 718.2,-124.0 C 719.4,-123.8 721.9,-123.5 723.2,-123.3 C 724.4,-123.1 726.9,-122.8 728.1,-122.7 C 729.4,-122.5 731.9,-122.2 733.1,-122.0 C 734.3,-121.9 736.8,-121.6 738.1,-121.4 C 739.3,-121.2 741.8,-120.9 743.0,-120.8 C 744.3,-120.6 746.7,-120.3 748.0,-120.1 C 749.2,-120.0 751.7,-119.7 753.0,-119.5 C 754.2,-119.4 756.7,-119.1 757.9,-118.9 C 759.2,-118.8 761.6,-118.5 762.9,-118.3 C 764.1,-118.2 766.6,-117.9 767.8,-117.7 C 769.1,-117.6 771.6,-117.3 772.8,-117.1 C 774.1,-117.0 776.6,-116.7 777.8,-116.6 C 779.1,-116.4 781.5,-116.1 782.8,-116.0 C 784.0,-115.8 786.5,-115.5 787.8,-115.4 C 789.0,-115.3 791.5,-115.0 792.7,-114.8 C 794.0,-114.7 796.5,-114.4 797.7,-114.3 C 798.3,-114.2 799.4,-114.1 800.0,-114.0"/>
				<text text-anchor="middle" x="450" y="-5"><textPath href="#isotherme600">600 K</textPath></text>
			</g>
			<g>
				<path class="curve isotherme" id="isotherme580" d="M 45.9,-538.7 C 45.9,-530.9 45.9,-527.8 45.9,-526.2 C 46.0,-524.7 46.0,-521.6 46.0,-520.1 C 46.0,-518.6 46.0,-515.5 46.0,-514.0 C 46.0,-512.5 46.1,-509.5 46.1,-507.9 C 46.1,-506.4 46.1,-503.4 46.1,-501.9 C 46.1,-500.5 46.2,-497.5 46.2,-496.0 C 46.2,-494.5 46.2,-491.6 46.2,-490.1 C 46.2,-488.6 46.2,-485.7 46.3,-484.3 C 46.3,-482.8 46.3,-479.9 46.3,-478.5 C 46.3,-477.0 46.3,-474.2 46.4,-472.7 C 46.4,-471.3 46.4,-468.5 46.4,-467.0 C 46.4,-465.6 46.4,-462.8 46.4,-461.4 C 46.5,-460.0 46.5,-457.2 46.5,-455.8 C 46.5,-454.4 46.5,-451.7 46.5,-450.3 C 46.5,-448.9 46.6,-446.1 46.6,-444.8 C 46.6,-443.4 46.6,-440.7 46.6,-439.3 C 46.6,-438.0 46.7,-435.3 46.7,-433.9 C 46.7,-432.6 46.7,-429.9 46.7,-428.6 C 46.7,-427.2 46.7,-424.6 46.8,-423.3 C 46.8,-421.9 46.8,-419.3 46.8,-418.0 C 46.8,-416.7 46.8,-414.1 46.8,-412.8 C 46.9,-411.5 46.9,-408.9 46.9,-407.6 C 46.9,-406.3 46.9,-403.7 46.9,-402.5 C 46.9,-401.2 47.0,-398.6 47.0,-397.4 C 47.0,-396.1 47.0,-393.6 47.0,-392.3 C 47.0,-390.7 47.1,-387.3 47.1,-385.7 C 47.1,-384.0 47.1,-380.7 47.1,-379.1 C 47.2,-377.5 47.2,-374.2 47.2,-372.6 C 47.2,-371.0 47.2,-367.8 47.3,-366.2 C 47.3,-364.6 47.3,-361.4 47.3,-359.8 C 47.3,-358.2 47.4,-355.1 47.4,-353.5 C 47.4,-352.0 47.4,-348.9 47.4,-347.3 C 47.5,-345.8 47.5,-342.7 47.5,-341.2 C 47.5,-339.6 47.5,-336.6 47.6,-335.1 C 47.6,-333.6 47.6,-330.6 47.6,-329.1 C 47.6,-327.6 47.7,-324.6 47.7,-323.1 C 47.7,-321.7 47.7,-318.7 47.7,-317.3 C 47.8,-315.8 47.8,-312.9 47.8,-311.5 C 47.8,-310.0 47.8,-307.2 47.9,-305.7 C 47.9,-304.3 47.9,-301.5 47.9,-300.1 C 47.9,-298.7 48.0,-295.9 48.0,-294.5 C 48.0,-293.1 48.0,-290.3 48.0,-288.9 C 48.1,-287.5 48.1,-284.8 48.1,-283.4 C 48.1,-282.1 48.1,-279.4 48.2,-278.0 C 48.2,-276.7 48.2,-274.0 48.2,-272.7 C 48.2,-271.3 48.3,-268.7 48.3,-267.4 C 48.3,-266.0 48.3,-263.4 48.3,-262.1 C 48.4,-260.8 48.4,-258.2 48.4,-256.9 C 48.4,-255.7 48.4,-253.1 48.5,-251.8 C 48.5,-250.5 48.5,-248.0 48.5,-246.8 C 48.5,-245.5 48.6,-243.0 48.6,-241.7 C 48.6,-240.2 48.6,-237.1 48.7,-235.6 C 48.7,-234.0 48.7,-231.0 48.7,-229.5 C 48.8,-228.0 48.8,-225.0 48.8,-223.5 C 48.8,-222.0 48.9,-219.0 48.9,-217.5 C 48.9,-216.1 48.9,-213.2 49.0,-211.7 C 49.0,-210.3 49.0,-207.4 49.0,-206.0 C 49.1,-204.5 49.1,-201.7 49.1,-200.3 C 49.1,-198.9 49.2,-196.1 49.2,-194.7 C 49.2,-193.3 49.2,-190.5 49.3,-189.2 C 49.3,-187.8 49.3,-185.1 49.3,-183.7 C 49.4,-182.4 49.4,-179.7 49.4,-178.4 C 49.4,-177.0 49.5,-174.4 49.5,-173.1 C 49.5,-171.8 49.5,-169.2 49.6,-167.9 C 49.6,-166.6 49.6,-164.0 49.6,-162.7 C 49.7,-161.4 49.7,-158.9 49.7,-157.6 C 49.7,-156.1 49.8,-153.2 49.8,-151.7 C 49.8,-150.2 49.9,-147.2 49.9,-145.8 C 49.9,-144.5 53.3,-143.9 54.5,-143.9 C 55.8,-143.9 58.3,-143.9 59.5,-143.9 C 60.8,-143.9 63.3,-143.9 64.5,-143.9 C 65.8,-143.9 68.3,-143.9 69.6,-143.9 C 70.8,-143.9 73.3,-143.9 74.6,-143.9 C 75.8,-143.9 78.3,-143.9 79.6,-143.9 C 80.8,-143.9 83.3,-143.9 84.6,-143.9 C 85.8,-143.9 88.3,-143.9 89.6,-143.9 C 90.8,-143.9 93.4,-143.9 94.6,-143.9 C 95.9,-143.9 98.4,-143.9 99.6,-143.9 C 100.9,-143.9 103.4,-143.9 104.6,-143.9 C 105.9,-143.9 108.4,-143.9 109.6,-143.9 C 110.9,-143.9 113.4,-143.9 114.6,-143.9 C 115.9,-143.9 118.4,-143.9 119.7,-143.9 C 120.9,-143.9 123.4,-143.9 124.7,-143.9 C 125.9,-143.9 128.4,-143.9 129.7,-143.9 C 130.9,-143.9 133.4,-143.9 134.7,-143.9 C 135.9,-143.9 138.4,-143.9 139.7,-143.9 C 140.9,-143.9 143.5,-143.9 144.7,-143.9 C 146.0,-143.9 148.5,-143.9 149.7,-143.9 C 151.0,-143.9 153.5,-143.9 154.7,-143.9 C 156.0,-143.9 158.5,-143.9 159.7,-143.9 C 161.0,-143.9 163.5,-143.9 164.7,-143.9 C 166.0,-143.9 168.5,-143.9 169.8,-143.9 C 171.0,-143.9 173.5,-143.9 174.8,-143.9 C 176.0,-143.9 178.5,-143.9 179.8,-143.9 C 181.0,-143.9 183.5,-143.9 184.8,-143.9 C 186.0,-143.9 188.5,-143.9 189.8,-143.9 C 191.0,-143.9 193.6,-143.9 194.8,-143.9 C 196.1,-143.9 198.6,-143.9 199.8,-143.9 C 201.1,-143.9 203.6,-143.9 204.8,-143.9 C 206.1,-143.9 208.6,-143.9 209.8,-143.9 C 211.1,-143.9 213.6,-143.9 214.8,-143.9 C 216.1,-143.9 218.6,-143.9 219.9,-143.9 C 221.1,-143.9 223.6,-143.9 224.9,-143.9 C 226.1,-143.9 228.6,-143.9 229.9,-143.9 C 231.1,-143.9 233.6,-143.9 234.9,-143.9 C 236.1,-143.9 238.6,-143.9 239.9,-143.9 C 241.1,-143.9 243.7,-143.9 244.9,-143.9 C 246.2,-143.9 248.7,-143.9 249.9,-143.9 C 251.2,-143.9 253.7,-143.9 254.9,-143.9 C 256.2,-143.9 258.7,-143.9 259.9,-143.9 C 261.2,-143.9 263.7,-143.9 264.9,-143.9 C 266.2,-143.9 268.7,-143.9 270.0,-143.9 C 271.2,-143.9 273.7,-143.9 275.0,-143.9 C 276.2,-143.9 278.7,-143.9 280.0,-143.9 C 281.2,-143.9 283.7,-143.9 285.0,-143.9 C 286.2,-143.9 288.7,-143.9 290.0,-143.9 C 291.2,-143.9 293.8,-143.9 295.0,-143.9 C 296.3,-143.9 298.8,-143.9 300.0,-143.9 C 301.3,-143.9 303.8,-143.9 305.0,-143.9 C 306.3,-143.9 308.8,-143.9 310.0,-143.9 C 311.3,-143.9 313.8,-143.9 315.0,-143.9 C 316.3,-143.9 318.8,-143.9 320.1,-143.9 C 321.3,-143.9 323.8,-143.9 325.1,-143.9 C 326.3,-143.9 328.8,-143.9 330.1,-143.9 C 331.3,-143.9 333.8,-143.9 335.1,-143.9 C 336.3,-143.9 338.8,-143.9 340.1,-143.9 C 341.3,-143.9 343.9,-143.9 345.1,-143.9 C 346.4,-143.9 348.9,-143.9 350.1,-143.9 C 351.4,-143.9 353.9,-143.9 355.1,-143.9 C 356.4,-143.9 358.9,-143.9 360.1,-143.9 C 361.4,-143.9 363.9,-143.9 365.1,-143.9 C 366.4,-143.9 368.9,-143.9 370.2,-143.9 C 371.4,-143.9 373.9,-143.9 375.2,-143.9 C 376.4,-143.9 378.9,-143.9 380.2,-143.9 C 381.4,-143.9 383.9,-143.9 385.2,-143.9 C 386.4,-143.9 388.9,-143.9 390.2,-143.9 C 391.4,-143.9 394.0,-143.9 395.2,-143.9 C 396.5,-143.9 399.0,-143.9 400.2,-143.9 C 401.5,-143.9 404.0,-143.9 405.2,-143.9 C 406.5,-143.9 409.0,-143.9 410.2,-143.9 C 411.5,-143.9 414.0,-143.9 415.2,-143.9 C 416.5,-143.9 419.0,-143.9 420.3,-143.9 C 421.5,-143.9 424.0,-143.9 425.3,-143.9 C 426.5,-143.9 429.0,-143.9 430.3,-143.9 C 431.5,-143.9 434.0,-143.9 435.3,-143.9 C 436.5,-143.9 439.0,-143.9 440.3,-143.9 C 441.5,-143.9 444.1,-143.9 445.3,-143.9 C 446.6,-143.9 449.1,-143.9 450.3,-143.9 C 451.6,-143.9 454.1,-143.9 455.3,-143.9 C 456.6,-143.9 459.1,-143.9 460.3,-143.9 C 461.6,-143.9 464.1,-143.9 465.3,-143.9 C 466.6,-143.9 469.1,-143.9 470.4,-143.9 C 471.6,-143.9 474.1,-143.9 475.4,-143.9 C 476.6,-143.9 479.1,-143.9 480.4,-143.9 C 481.6,-143.9 484.1,-143.9 485.4,-143.9 C 486.6,-143.9 489.1,-143.9 490.4,-143.9 C 491.6,-143.9 494.2,-143.9 495.4,-143.9 C 496.7,-143.9 499.2,-143.9 500.4,-143.9 C 501.7,-143.9 504.2,-143.9 505.4,-143.9 C 506.7,-143.9 509.2,-143.9 510.4,-143.9 C 511.7,-143.9 514.2,-143.9 515.4,-143.9 C 516.7,-143.9 519.2,-143.9 520.5,-143.9 C 521.7,-143.9 524.2,-143.9 525.5,-143.9 C 526.7,-143.9 529.2,-143.9 530.5,-143.9 C 531.7,-143.9 534.2,-143.9 535.5,-143.9 C 536.7,-143.9 539.2,-143.4 540.4,-143.1 C 541.7,-142.9 544.1,-142.5 545.4,-142.3 C 546.6,-142.1 549.1,-141.7 550.3,-141.5 C 551.5,-141.3 554.0,-140.9 555.2,-140.7 C 556.5,-140.4 558.9,-140.0 560.2,-139.8 C 561.4,-139.6 563.9,-139.2 565.1,-139.0 C 566.3,-138.8 568.8,-138.4 570.1,-138.2 C 571.3,-138.0 573.8,-137.6 575.0,-137.4 C 576.2,-137.2 578.7,-136.8 580.0,-136.6 C 581.2,-136.4 583.7,-136.1 584.9,-135.9 C 586.1,-135.7 588.6,-135.3 589.9,-135.1 C 591.1,-134.9 593.6,-134.5 594.8,-134.3 C 596.0,-134.1 598.5,-133.8 599.8,-133.6 C 601.0,-133.4 603.5,-133.0 604.7,-132.8 C 605.9,-132.6 608.4,-132.3 609.7,-132.1 C 610.9,-131.9 613.4,-131.5 614.6,-131.3 C 615.8,-131.2 618.3,-130.8 619.6,-130.6 C 620.8,-130.4 623.3,-130.1 624.5,-129.9 C 625.7,-129.7 628.2,-129.4 629.5,-129.2 C 630.7,-129.0 633.2,-128.6 634.4,-128.5 C 635.7,-128.3 638.1,-127.9 639.4,-127.8 C 640.6,-127.6 643.1,-127.2 644.3,-127.1 C 645.6,-126.9 648.1,-126.6 649.3,-126.4 C 650.5,-126.2 653.0,-125.9 654.3,-125.7 C 655.5,-125.5 658.0,-125.2 659.2,-125.0 C 660.5,-124.9 663.0,-124.5 664.2,-124.4 C 665.4,-124.2 667.9,-123.9 669.2,-123.7 C 670.4,-123.5 672.9,-123.2 674.1,-123.0 C 675.4,-122.9 677.9,-122.5 679.1,-122.4 C 680.3,-122.2 682.8,-121.9 684.1,-121.7 C 685.3,-121.6 687.8,-121.3 689.0,-121.1 C 690.3,-120.9 692.7,-120.6 694.0,-120.5 C 695.2,-120.3 697.7,-120.0 699.0,-119.8 C 700.2,-119.7 702.7,-119.4 703.9,-119.2 C 705.2,-119.1 707.6,-118.8 708.9,-118.6 C 710.1,-118.5 712.6,-118.1 713.8,-118.0 C 715.1,-117.8 717.6,-117.5 718.8,-117.4 C 720.1,-117.2 722.5,-116.9 723.8,-116.8 C 725.0,-116.6 727.5,-116.4 728.7,-116.2 C 730.0,-116.1 732.5,-115.8 733.7,-115.6 C 735.0,-115.5 737.5,-115.2 738.7,-115.0 C 739.9,-114.9 742.4,-114.6 743.7,-114.5 C 744.9,-114.3 747.4,-114.0 748.7,-113.9 C 749.9,-113.7 752.4,-113.5 753.6,-113.3 C 754.9,-113.2 757.4,-112.9 758.6,-112.8 C 759.9,-112.6 762.4,-112.3 763.6,-112.2 C 764.8,-112.1 767.3,-111.8 768.6,-111.6 C 769.8,-111.5 772.3,-111.2 773.6,-111.1 C 774.8,-111.0 777.3,-110.7 778.5,-110.6 C 779.8,-110.4 782.3,-110.2 783.5,-110.0 C 784.8,-109.9 787.3,-109.6 788.5,-109.5 C 789.7,-109.4 792.2,-109.1 793.5,-109.0 C 794.7,-108.8 797.2,-108.6 798.5,-108.4 C 798.8,-108.4 799.6,-108.3 800.0,-108.3"/>
				<text class="step1" text-anchor="middle" x="520" y="-8"><textPath href="#isotherme580">580 K &lt; T<tspan dx="1" dy="5" class="indice">c</tspan></textPath></text>
			</g>
			<g class="hidden">
				<path class="curve isotherme" id="isotherme560" d="M 43.5,-538.4 C 43.5,-530.9 43.6,-527.9 43.6,-526.4 C 43.6,-525.0 43.6,-522.0 43.6,-520.5 C 43.6,-519.0 43.6,-516.1 43.6,-514.6 C 43.6,-513.2 43.6,-510.3 43.7,-508.8 C 43.7,-507.3 43.7,-504.4 43.7,-503.0 C 43.7,-501.6 43.7,-498.7 43.7,-497.2 C 43.7,-495.8 43.7,-492.9 43.7,-491.5 C 43.7,-490.1 43.8,-487.2 43.8,-485.8 C 43.8,-484.4 43.8,-481.6 43.8,-480.2 C 43.8,-478.7 43.8,-475.9 43.8,-474.5 C 43.8,-473.1 43.9,-470.3 43.9,-469.0 C 43.9,-467.6 43.9,-464.8 43.9,-463.4 C 43.9,-462.0 43.9,-459.3 43.9,-457.9 C 43.9,-456.5 43.9,-453.8 44.0,-452.4 C 44.0,-451.1 44.0,-448.3 44.0,-447.0 C 44.0,-445.6 44.0,-442.9 44.0,-441.6 C 44.0,-440.2 44.0,-437.5 44.0,-436.2 C 44.0,-434.9 44.1,-432.2 44.1,-430.9 C 44.1,-429.5 44.1,-426.9 44.1,-425.6 C 44.1,-424.3 44.1,-421.6 44.1,-420.3 C 44.1,-419.0 44.2,-416.4 44.2,-415.1 C 44.2,-413.8 44.2,-411.2 44.2,-409.9 C 44.2,-408.6 44.2,-406.0 44.2,-404.7 C 44.2,-403.4 44.2,-400.8 44.3,-399.6 C 44.3,-398.3 44.3,-395.7 44.3,-394.5 C 44.3,-393.2 44.3,-390.7 44.3,-389.4 C 44.3,-388.1 44.3,-385.6 44.3,-384.4 C 44.3,-383.1 44.4,-380.6 44.4,-379.4 C 44.4,-377.5 44.4,-373.8 44.4,-371.9 C 44.4,-370.1 44.4,-366.4 44.5,-364.5 C 44.5,-362.7 44.5,-359.1 44.5,-357.2 C 44.5,-355.4 44.5,-351.8 44.6,-350.0 C 44.6,-348.2 44.6,-344.6 44.6,-342.8 C 44.6,-341.0 44.6,-337.5 44.6,-335.7 C 44.7,-334.0 44.7,-330.4 44.7,-328.7 C 44.7,-327.0 44.7,-323.5 44.7,-321.7 C 44.7,-320.0 44.8,-316.6 44.8,-314.8 C 44.8,-313.1 44.8,-309.7 44.8,-308.0 C 44.8,-306.3 44.9,-302.9 44.9,-301.2 C 44.9,-299.6 44.9,-296.2 44.9,-294.5 C 44.9,-292.9 44.9,-289.5 45.0,-287.9 C 45.0,-286.2 45.0,-282.9 45.0,-281.3 C 45.0,-279.7 45.0,-276.4 45.0,-274.8 C 45.1,-273.2 45.1,-269.9 45.1,-268.3 C 45.1,-266.7 45.1,-263.5 45.1,-261.9 C 45.1,-260.4 45.2,-257.2 45.2,-255.6 C 45.2,-254.0 45.2,-250.9 45.2,-249.3 C 45.2,-247.8 45.3,-244.7 45.3,-243.1 C 45.3,-241.6 45.3,-238.5 45.3,-237.0 C 45.3,-235.4 45.3,-232.4 45.4,-230.9 C 45.4,-229.4 45.4,-226.3 45.4,-224.8 C 45.4,-223.3 45.4,-220.3 45.5,-218.8 C 45.5,-217.4 45.5,-214.4 45.5,-212.9 C 45.5,-211.4 45.5,-208.5 45.5,-207.0 C 45.6,-205.6 45.6,-202.7 45.6,-201.2 C 45.6,-199.8 45.6,-196.9 45.6,-195.5 C 45.6,-194.0 45.7,-191.2 45.7,-189.8 C 45.7,-188.3 45.7,-185.5 45.7,-184.1 C 45.7,-182.7 45.8,-179.9 45.8,-178.5 C 45.8,-177.1 45.8,-174.3 45.8,-173.0 C 45.8,-171.6 45.8,-168.8 45.9,-167.5 C 45.9,-166.1 45.9,-163.4 45.9,-162.0 C 45.9,-160.7 45.9,-158.0 45.9,-156.6 C 46.0,-155.3 46.0,-152.6 46.0,-151.3 C 46.0,-150.0 46.0,-147.3 46.0,-146.0 C 46.0,-144.7 46.1,-142.1 46.1,-140.7 C 46.1,-139.4 46.1,-136.8 46.1,-135.5 C 46.1,-134.3 46.2,-131.7 46.2,-130.4 C 46.2,-129.1 46.2,-126.6 46.2,-125.3 C 46.2,-124.0 46.2,-121.5 46.3,-120.3 C 46.3,-119.0 46.3,-116.5 46.3,-115.3 C 46.3,-113.6 46.3,-110.3 46.4,-108.7 C 46.4,-107.4 50.1,-108.2 51.3,-108.2 C 52.6,-108.2 55.1,-108.2 56.4,-108.2 C 57.6,-108.2 60.1,-108.2 61.4,-108.2 C 62.6,-108.2 65.1,-108.2 66.4,-108.2 C 67.6,-108.2 70.1,-108.2 71.4,-108.2 C 72.6,-108.2 75.1,-108.2 76.4,-108.2 C 77.6,-108.2 80.2,-108.2 81.4,-108.2 C 82.7,-108.2 85.2,-108.2 86.4,-108.2 C 87.7,-108.2 90.2,-108.2 91.4,-108.2 C 92.7,-108.2 95.2,-108.2 96.4,-108.2 C 97.7,-108.2 100.2,-108.2 101.4,-108.2 C 102.7,-108.2 105.2,-108.2 106.5,-108.2 C 107.7,-108.2 110.2,-108.2 111.5,-108.2 C 112.7,-108.2 115.2,-108.2 116.5,-108.2 C 117.7,-108.2 120.2,-108.2 121.5,-108.2 C 122.7,-108.2 125.2,-108.2 126.5,-108.2 C 127.7,-108.2 130.3,-108.2 131.5,-108.2 C 132.8,-108.2 135.3,-108.2 136.5,-108.2 C 137.8,-108.2 140.3,-108.2 141.5,-108.2 C 142.8,-108.2 145.3,-108.2 146.5,-108.2 C 147.8,-108.2 150.3,-108.2 151.5,-108.2 C 152.8,-108.2 155.3,-108.2 156.6,-108.2 C 157.8,-108.2 160.3,-108.2 161.6,-108.2 C 162.8,-108.2 165.3,-108.2 166.6,-108.2 C 167.8,-108.2 170.3,-108.2 171.6,-108.2 C 172.8,-108.2 175.3,-108.2 176.6,-108.2 C 177.8,-108.2 180.4,-108.2 181.6,-108.2 C 182.9,-108.2 185.4,-108.2 186.6,-108.2 C 187.9,-108.2 190.4,-108.2 191.6,-108.2 C 192.9,-108.2 195.4,-108.2 196.6,-108.2 C 197.9,-108.2 200.4,-108.2 201.6,-108.2 C 202.9,-108.2 205.4,-108.2 206.7,-108.2 C 207.9,-108.2 210.4,-108.2 211.7,-108.2 C 212.9,-108.2 215.4,-108.2 216.7,-108.2 C 217.9,-108.2 220.4,-108.2 221.7,-108.2 C 222.9,-108.2 225.4,-108.2 226.7,-108.2 C 227.9,-108.2 230.5,-108.2 231.7,-108.2 C 233.0,-108.2 235.5,-108.2 236.7,-108.2 C 238.0,-108.2 240.5,-108.2 241.7,-108.2 C 243.0,-108.2 245.5,-108.2 246.7,-108.2 C 248.0,-108.2 250.5,-108.2 251.7,-108.2 C 253.0,-108.2 255.5,-108.2 256.8,-108.2 C 258.0,-108.2 260.5,-108.2 261.8,-108.2 C 263.0,-108.2 265.5,-108.2 266.8,-108.2 C 268.0,-108.2 270.5,-108.2 271.8,-108.2 C 273.0,-108.2 275.5,-108.2 276.8,-108.2 C 278.0,-108.2 280.6,-108.2 281.8,-108.2 C 283.1,-108.2 285.6,-108.2 286.8,-108.2 C 288.1,-108.2 290.6,-108.2 291.8,-108.2 C 293.1,-108.2 295.6,-108.2 296.8,-108.2 C 298.1,-108.2 300.6,-108.2 301.8,-108.2 C 303.1,-108.2 305.6,-108.2 306.9,-108.2 C 308.1,-108.2 310.6,-108.2 311.9,-108.2 C 313.1,-108.2 315.6,-108.2 316.9,-108.2 C 318.1,-108.2 320.6,-108.2 321.9,-108.2 C 323.1,-108.2 325.6,-108.2 326.9,-108.2 C 328.1,-108.2 330.7,-108.2 331.9,-108.2 C 333.2,-108.2 335.7,-108.2 336.9,-108.2 C 338.2,-108.2 340.7,-108.2 341.9,-108.2 C 343.2,-108.2 345.7,-108.2 346.9,-108.2 C 348.2,-108.2 350.7,-108.2 351.9,-108.2 C 353.2,-108.2 355.7,-108.2 357.0,-108.2 C 358.2,-108.2 360.7,-108.2 362.0,-108.2 C 363.2,-108.2 365.7,-108.2 367.0,-108.2 C 368.2,-108.2 370.7,-108.2 372.0,-108.2 C 373.2,-108.2 375.7,-108.2 377.0,-108.2 C 378.2,-108.2 380.8,-108.2 382.0,-108.2 C 383.3,-108.2 385.8,-108.2 387.0,-108.2 C 388.3,-108.2 390.8,-108.2 392.0,-108.2 C 393.3,-108.2 395.8,-108.2 397.0,-108.2 C 398.3,-108.2 400.8,-108.2 402.0,-108.2 C 403.3,-108.2 405.8,-108.2 407.1,-108.2 C 408.3,-108.2 410.8,-108.2 412.1,-108.2 C 413.3,-108.2 415.8,-108.2 417.1,-108.2 C 418.3,-108.2 420.8,-108.2 422.1,-108.2 C 423.3,-108.2 425.8,-108.2 427.1,-108.2 C 428.3,-108.2 430.9,-108.2 432.1,-108.2 C 433.4,-108.2 435.9,-108.2 437.1,-108.2 C 438.4,-108.2 440.9,-108.2 442.1,-108.2 C 443.4,-108.2 445.9,-108.2 447.1,-108.2 C 448.4,-108.2 450.9,-108.2 452.1,-108.2 C 453.4,-108.2 455.9,-108.2 457.2,-108.2 C 458.4,-108.2 460.9,-108.2 462.2,-108.2 C 463.4,-108.2 465.9,-108.2 467.2,-108.2 C 468.4,-108.2 470.9,-108.2 472.2,-108.2 C 473.4,-108.2 475.9,-108.2 477.2,-108.2 C 478.4,-108.2 481.0,-108.2 482.2,-108.2 C 483.5,-108.2 486.0,-108.2 487.2,-108.2 C 488.5,-108.2 491.0,-108.2 492.2,-108.2 C 493.5,-108.2 496.0,-108.2 497.2,-108.2 C 498.5,-108.2 501.0,-108.2 502.2,-108.2 C 503.5,-108.2 506.0,-108.2 507.3,-108.2 C 508.5,-108.2 511.0,-108.2 512.3,-108.2 C 513.5,-108.2 516.0,-108.2 517.3,-108.2 C 518.5,-108.2 521.0,-108.2 522.3,-108.2 C 523.5,-108.2 526.0,-108.2 527.3,-108.2 C 528.5,-108.2 531.1,-108.2 532.3,-108.2 C 533.6,-108.2 536.1,-108.2 537.3,-108.2 C 538.6,-108.2 541.1,-108.2 542.3,-108.2 C 543.6,-108.2 546.1,-108.2 547.3,-108.2 C 548.6,-108.2 551.1,-108.2 552.3,-108.2 C 553.6,-108.2 556.1,-108.2 557.4,-108.2 C 558.6,-108.2 561.1,-108.2 562.4,-108.2 C 563.6,-108.2 566.1,-108.2 567.4,-108.2 C 568.6,-108.2 571.1,-108.2 572.4,-108.2 C 573.6,-108.2 576.1,-108.2 577.4,-108.2 C 578.6,-108.2 581.2,-108.2 582.4,-108.2 C 583.7,-108.2 586.2,-108.2 587.4,-108.2 C 588.7,-108.2 591.2,-108.2 592.4,-108.2 C 593.7,-108.2 596.2,-108.2 597.4,-108.2 C 598.7,-108.2 601.2,-108.2 602.4,-108.2 C 603.7,-108.2 606.2,-108.2 607.5,-108.2 C 608.7,-108.2 611.2,-108.2 612.5,-108.2 C 613.7,-108.2 616.2,-108.2 617.5,-108.2 C 618.7,-108.2 621.2,-108.2 622.5,-108.2 C 623.7,-108.2 626.2,-108.2 627.5,-108.2 C 628.7,-108.2 631.3,-108.2 632.5,-108.2 C 633.8,-108.2 636.3,-108.2 637.5,-108.2 C 638.8,-108.2 641.3,-108.2 642.5,-108.2 C 643.8,-108.2 646.3,-108.2 647.5,-108.2 C 648.8,-108.2 651.3,-108.2 652.5,-108.2 C 653.8,-108.2 656.3,-108.2 657.6,-108.2 C 658.8,-108.2 661.3,-108.2 662.6,-108.2 C 663.8,-108.2 666.3,-108.2 667.6,-108.2 C 668.8,-108.2 671.3,-108.2 672.6,-108.2 C 673.8,-108.2 676.3,-108.2 677.6,-108.2 C 678.8,-108.2 681.4,-108.2 682.6,-108.2 C 683.9,-108.2 686.4,-108.2 687.6,-108.2 C 688.9,-108.2 691.4,-108.2 692.6,-108.2 C 693.9,-108.2 696.4,-108.2 697.6,-108.2 C 698.9,-108.2 701.4,-108.2 702.6,-108.2 C 703.9,-108.2 706.4,-108.2 707.7,-108.2 C 708.9,-108.2 711.4,-108.2 712.7,-108.2 C 713.9,-108.2 716.4,-108.2 717.7,-108.2 C 718.9,-108.2 721.4,-108.2 722.7,-108.2 C 723.9,-108.2 726.4,-108.2 727.7,-108.2 C 728.9,-108.2 731.5,-108.2 732.7,-108.2 C 734.0,-108.2 736.5,-108.2 737.7,-108.2 C 739.0,-108.2 741.5,-108.2 742.7,-108.2 C 744.0,-108.2 746.5,-107.9 747.7,-107.8 C 749.0,-107.6 751.5,-107.4 752.7,-107.3 C 753.9,-107.1 756.4,-106.9 757.7,-106.7 C 758.9,-106.6 761.4,-106.4 762.7,-106.2 C 763.9,-106.1 766.4,-105.8 767.6,-105.7 C 768.9,-105.6 771.4,-105.3 772.6,-105.2 C 773.9,-105.1 776.4,-104.8 777.6,-104.7 C 778.8,-104.6 781.3,-104.4 782.6,-104.2 C 783.8,-104.1 786.3,-103.9 787.6,-103.7 C 788.8,-103.6 791.3,-103.4 792.5,-103.3 C 793.8,-103.1 796.3,-102.9 797.5,-102.8 C 798.1,-102.7 799.4,-102.6 800.0,-102.5"/>
				<text text-anchor="middle" x="540" y="-5"><textPath href="#isotherme560">560 K</textPath></text>
			</g>
			<g>
				<g class="enveloppe">
					<g>
						<path class="curve" id="courbe-rose" d="M 799.8,-101.3 C 793.2,-102.0 790.6,-102.4 789.3,-102.5 C 788.1,-102.7 785.5,-103.0 784.2,-103.1 C 782.9,-103.3 780.3,-103.6 779.1,-103.7 C 777.8,-103.9 775.2,-104.2 774.0,-104.4 C 772.7,-104.5 770.2,-104.8 768.9,-105.0 C 767.6,-105.1 765.1,-105.4 763.9,-105.6 C 762.6,-105.8 760.1,-106.1 758.9,-106.2 C 757.3,-106.4 754.2,-106.8 752.7,-107.0 C 751.2,-107.2 748.1,-107.6 746.5,-107.8 C 745.0,-108.0 742.0,-108.4 740.5,-108.6 C 739.0,-108.8 735.9,-109.2 734.4,-109.4 C 732.9,-109.6 729.9,-110.0 728.4,-110.2 C 727.0,-110.4 724.0,-110.8 722.5,-111.0 C 721.0,-111.2 718.1,-111.7 716.6,-111.9 C 715.2,-112.1 712.2,-112.5 710.8,-112.7 C 709.3,-112.9 706.4,-113.3 705.0,-113.5 C 703.6,-113.7 700.7,-114.1 699.3,-114.3 C 697.8,-114.5 695.0,-115.0 693.6,-115.2 C 692.2,-115.4 689.3,-115.8 687.9,-116.0 C 686.5,-116.2 683.7,-116.6 682.3,-116.9 C 680.9,-117.1 678.2,-117.5 676.8,-117.7 C 675.4,-117.9 672.6,-118.3 671.3,-118.6 C 669.9,-118.8 667.2,-119.2 665.8,-119.4 C 664.5,-119.6 661.7,-120.1 660.4,-120.3 C 659.0,-120.5 656.4,-120.9 655.0,-121.1 C 653.7,-121.4 651.0,-121.8 649.7,-122.0 C 648.4,-122.2 645.7,-122.7 644.4,-122.9 C 643.1,-123.1 640.5,-123.5 639.2,-123.8 C 637.9,-124.0 635.3,-124.4 634.0,-124.7 C 632.7,-124.9 630.1,-125.3 628.8,-125.5 C 627.5,-125.8 625.0,-126.2 623.7,-126.4 C 622.4,-126.7 619.9,-127.1 618.6,-127.3 C 617.4,-127.6 614.8,-128.0 613.6,-128.3 C 612.3,-128.5 609.8,-128.9 608.6,-129.2 C 607.4,-129.4 604.9,-129.8 603.6,-130.1 C 602.2,-130.4 599.2,-130.9 597.7,-131.2 C 596.3,-131.5 593.4,-132.0 591.9,-132.3 C 590.5,-132.6 587.6,-133.1 586.1,-133.4 C 584.7,-133.7 581.8,-134.3 580.4,-134.5 C 579.0,-134.8 576.1,-135.4 574.7,-135.7 C 573.3,-136.0 570.5,-136.5 569.1,-136.8 C 567.7,-137.1 564.9,-137.7 563.5,-138.0 C 562.2,-138.2 559.4,-138.8 558.0,-139.1 C 556.7,-139.4 553.9,-140.0 552.6,-140.3 C 551.2,-140.6 548.5,-141.2 547.2,-141.4 C 545.8,-141.7 543.1,-142.3 541.8,-142.6 C 540.5,-142.9 537.8,-143.5 536.5,-143.8 C 535.2,-144.1 532.5,-144.7 531.2,-145.0 C 529.9,-145.3 527.3,-145.9 526.0,-146.2 C 524.7,-146.5 522.1,-147.1 520.8,-147.4 C 519.6,-147.7 517.0,-148.3 515.7,-148.6 C 514.5,-148.9 511.9,-149.5 510.7,-149.8 C 509.4,-150.1 506.9,-150.8 505.6,-151.1 C 504.4,-151.4 501.9,-152.0 500.6,-152.3 C 499.4,-152.6 496.9,-153.2 495.7,-153.5 C 494.5,-153.9 492.0,-154.5 490.8,-154.8 C 489.6,-155.1 487.2,-155.7 486.0,-156.1 C 484.6,-156.4 481.8,-157.2 480.4,-157.5 C 479.0,-157.9 476.2,-158.7 474.8,-159.0 C 473.5,-159.4 470.7,-160.2 469.3,-160.5 C 468.0,-160.9 465.3,-161.7 463.9,-162.0 C 462.6,-162.4 459.9,-163.2 458.5,-163.6 C 457.2,-163.9 454.5,-164.7 453.2,-165.1 C 451.9,-165.5 449.3,-166.3 448.0,-166.6 C 446.6,-167.0 444.0,-167.8 442.7,-168.2 C 441.5,-168.6 438.9,-169.4 437.6,-169.8 C 436.3,-170.2 433.8,-170.9 432.5,-171.3 C 431.2,-171.7 428.7,-172.5 427.4,-172.9 C 426.2,-173.3 423.7,-174.1 422.4,-174.5 C 421.2,-174.9 418.7,-175.7 417.5,-176.1 C 416.2,-176.5 413.8,-177.3 412.5,-177.8 C 411.3,-178.2 408.9,-179.0 407.7,-179.4 C 406.5,-179.8 404.1,-180.6 402.9,-181.0 C 401.7,-181.4 399.3,-182.3 398.1,-182.7 C 396.9,-183.1 394.6,-183.9 393.4,-184.4 C 392.0,-184.8 389.4,-185.8 388.0,-186.3 C 386.7,-186.8 384.1,-187.7 382.7,-188.2 C 381.4,-188.7 378.8,-189.7 377.5,-190.2 C 376.2,-190.6 373.6,-191.6 372.3,-192.1 C 371.1,-192.6 368.5,-193.6 367.2,-194.1 C 365.9,-194.6 363.4,-195.6 362.1,-196.1 C 360.9,-196.6 358.4,-197.6 357.1,-198.1 C 355.9,-198.6 353.4,-199.6 352.2,-200.1 C 351.0,-200.6 348.5,-201.7 347.3,-202.2 C 346.1,-202.7 343.6,-203.7 342.4,-204.2 C 341.2,-204.7 338.8,-205.8 337.6,-206.3 C 336.4,-206.8 334.0,-207.9 332.8,-208.4 C 331.6,-208.9 329.3,-210.0 328.1,-210.5 C 326.9,-211.0 324.6,-212.1 323.4,-212.6 C 322.3,-213.1 320.0,-214.2 318.8,-214.7 C 317.7,-215.3 315.4,-216.4 314.2,-216.9 C 313.1,-217.4 310.8,-218.5 309.7,-219.1 C 308.6,-219.6 306.3,-220.7 305.2,-221.3 C 303.9,-221.9 301.4,-223.1 300.2,-223.7 C 298.9,-224.4 296.5,-225.6 295.2,-226.2 C 294.0,-226.9 291.5,-228.1 290.3,-228.8 C 289.1,-229.4 286.6,-230.7 285.4,-231.3 C 284.2,-231.9 281.8,-233.2 280.6,-233.9 C 279.4,-234.5 277.0,-235.8 275.8,-236.4 C 274.6,-237.1 272.3,-238.4 271.1,-239.1 C 269.9,-239.7 267.6,-241.0 266.4,-241.7 C 265.2,-242.3 262.9,-243.7 261.7,-244.3 C 260.6,-245.0 258.3,-246.3 257.1,-247.0 C 256.0,-247.7 253.7,-249.0 252.5,-249.7 C 251.4,-250.4 249.1,-251.7 248.0,-252.4 C 246.9,-253.1 244.6,-254.5 243.5,-255.2 C 242.3,-255.8 240.1,-257.2 239.0,-257.9 C 237.9,-258.6 235.6,-260.0 234.5,-260.7 C 233.4,-261.4 231.2,-262.8 230.1,-263.5 C 229.0,-264.2 226.8,-265.6 225.7,-266.3 C 224.6,-267.0 222.4,-268.5 221.3,-269.2 C 220.2,-269.9 218.0,-271.3 216.9,-272.1 C 215.8,-272.8 213.6,-274.2 212.5,-275.0 C 211.4,-275.7 209.2,-277.2 208.1,-277.9 C 207.0,-278.6 204.9,-280.1 203.8,-280.8 C 202.7,-281.6 200.5,-283.1 199.4,-283.8 C 198.3,-284.6 196.2,-286.1 195.1,-286.8 C 194.0,-287.6 191.8,-289.1 190.7,-289.8 C 189.6,-290.6 187.4,-292.1 186.3,-292.9 C 185.2,-293.6 183.0,-295.2 181.9,-295.9 C 180.7,-296.7 178.5,-298.3 177.4,-299.0 C 176.2,-299.8 174.0,-301.4 172.8,-302.1 C 171.7,-302.9 169.4,-304.5 168.2,-305.3 C 167.2,-306.0 165.1,-307.4 164.1,-308.1 C 163.0,-308.8 160.9,-310.2 159.8,-310.9 C 158.7,-311.6 156.5,-313.1 155.4,-313.8 C 154.2,-314.5 151.9,-315.9 150.8,-316.7 C 149.6,-317.4 147.2,-318.8 146.0,-319.6 C 144.8,-320.2 142.6,-321.5 141.4,-322.1 C 140.2,-322.8 137.7,-324.0 136.4,-324.7 C 135.3,-325.2 133.0,-326.3 131.8,-326.9 C 130.5,-327.5 127.8,-328.6 126.4,-329.1 C 125.0,-329.6 122.1,-330.5 120.7,-330.9"/>
						<text class="step6" text-anchor="middle" x="175" y="-2"><textPath href="#courbe-rose" side="right">Courbe de rosé</textPath></text>
					</g>
					<g>
						<path class="curve" id="courbe-bulle" d="M 31.3,-0.0 C 35.0,-4.9 35.6,-7.4 35.8,-8.6 C 36.1,-9.8 36.5,-12.3 36.7,-13.5 C 36.9,-14.8 37.2,-17.3 37.4,-18.5 C 37.6,-19.8 37.9,-22.3 38.0,-23.5 C 38.2,-24.8 38.5,-27.3 38.6,-28.5 C 38.8,-29.7 39.1,-32.2 39.2,-33.5 C 39.3,-34.7 39.6,-37.3 39.7,-38.5 C 39.9,-39.8 40.1,-42.3 40.2,-43.6 C 40.4,-44.8 40.6,-47.3 40.7,-48.6 C 40.9,-49.8 41.1,-52.4 41.2,-53.6 C 41.4,-54.9 41.6,-57.4 41.7,-58.7 C 41.8,-59.9 42.1,-62.5 42.2,-63.7 C 42.3,-65.0 42.6,-67.5 42.7,-68.8 C 42.8,-70.1 43.0,-72.6 43.1,-73.8 C 43.3,-75.1 43.5,-77.6 43.6,-78.8 C 43.7,-80.1 44.0,-82.6 44.1,-83.9 C 44.2,-85.1 44.4,-87.6 44.5,-88.8 C 44.7,-90.1 44.9,-92.6 45.0,-93.9 C 45.1,-95.2 45.4,-97.7 45.5,-99.0 C 45.6,-100.3 45.9,-102.8 46.0,-104.0 C 46.1,-105.3 46.3,-107.8 46.5,-109.1 C 46.6,-110.4 46.8,-112.9 46.9,-114.2 C 47.1,-115.4 47.3,-118.0 47.4,-119.2 C 47.6,-120.5 47.8,-123.0 47.9,-124.3 C 48.1,-125.6 48.3,-128.1 48.4,-129.3 C 48.6,-130.6 48.8,-133.1 48.9,-134.3 C 49.1,-135.6 49.3,-138.2 49.5,-139.5 C 49.6,-140.8 49.9,-143.3 50.0,-144.6 C 50.1,-145.9 50.4,-148.4 50.5,-149.6 C 50.7,-150.9 50.9,-153.5 51.1,-154.8 C 51.2,-156.1 51.5,-158.6 51.6,-159.9 C 51.8,-161.1 52.1,-163.6 52.2,-164.9 C 52.3,-166.2 52.6,-168.7 52.8,-170.0 C 52.9,-171.2 53.2,-173.7 53.4,-175.0 C 53.5,-176.3 53.8,-178.8 54.0,-180.1 C 54.1,-181.3 54.4,-183.8 54.6,-185.1 C 54.8,-186.3 55.1,-188.9 55.2,-190.2 C 55.4,-191.5 55.8,-194.0 55.9,-195.3 C 56.1,-196.6 56.4,-199.1 56.6,-200.4 C 56.8,-201.7 57.1,-204.2 57.3,-205.5 C 57.5,-206.8 57.8,-209.2 58.0,-210.5 C 58.2,-211.8 58.6,-214.3 58.8,-215.6 C 59.0,-216.8 59.3,-219.4 59.5,-220.7 C 59.7,-222.0 60.1,-224.4 60.3,-225.7 C 60.5,-226.9 60.9,-229.5 61.2,-230.7 C 61.4,-232.0 61.8,-234.6 62.0,-235.9 C 62.2,-237.1 62.7,-239.6 62.9,-240.8 C 63.1,-242.1 63.6,-244.6 63.8,-245.8 C 64.1,-247.1 64.6,-249.6 64.8,-250.9 C 65.1,-252.2 65.6,-254.8 65.9,-256.1 C 66.2,-257.3 66.7,-259.8 67.0,-261.0 C 67.2,-262.3 67.8,-264.8 68.1,-266.0 C 68.4,-267.3 69.0,-269.8 69.3,-271.1 C 69.7,-272.4 70.3,-275.0 70.7,-276.3 C 71.0,-277.5 71.7,-279.9 72.0,-281.2 C 72.4,-282.4 73.1,-284.9 73.5,-286.1 C 73.9,-287.4 74.7,-289.9 75.2,-291.2 C 75.6,-292.4 76.4,-294.7 76.8,-295.9 C 77.3,-297.1 78.2,-299.6 78.7,-300.8 C 79.2,-302.0 80.3,-304.4 80.9,-305.6 C 81.4,-306.8 82.6,-309.1 83.2,-310.2 C 83.8,-311.4 85.2,-313.7 85.9,-314.9 C 86.6,-316.0 88.1,-318.1 88.9,-319.2 C 89.7,-320.2 91.4,-322.3 92.3,-323.2 C 93.2,-324.1 95.1,-325.8 96.1,-326.5 C 97.1,-327.2 99.3,-328.5 100.4,-329.1 C 101.8,-329.7 104.8,-330.7 106.3,-330.9"/>
						<text  class="step7" text-anchor="middle" x="275" y="-2"><textPath href="#courbe-bulle">Courbe de bulle</textPath></text>
					</g>
				</g>
				<circle id="point-bulle" cx="49.9" cy="-143.9" r="4" class="point step5"/>
				<circle id="point-rose" cx="536.1" cy="-143.9" r="4" class="point step4"/>

				<g class="step8">
					<path d="M 117.3,-331.8 V 0" class="repere"/>
					<path d="M 117.3,-331.8 H 0" class="repere"/>
					<text x="-8" y="-331.8" text-anchor="end">P<tspan class="indice" dx="1" dy="5">c</tspan></text>
					<text x="117.3" y="20" text-anchor="middle">V̅<tspan class="indice" dx="1" dy="5">c</tspan></text>
					<circle id="point-critique" cx="117.3" cy="-331.8" r="4" class="point"/>
				</g>
			</g>
			<g>
				<text x="550" y="-240" class="phase-name">Vapeur</text>
				<text x="140" y="-55" class="phase-name">Diphasique</text>
				<text x="30" y="-155" class="phase-name" transform="rotate(-90 30,-155)">Liquide</text>
			</g>
		</g>
	</defs>
	<use xlink:href="#figure" x="85" y="565"/>
</svg>
